<svg width="64" height="64" viewBox="0 0 64 64" fill="none" xmlns="http://www.w3.org/2000/svg">
<circle cx="32" cy="32" r="32" fill="#14AC5B" fill-opacity="0.1"/>
<circle cx="32" cy="32" r="24" fill="#14AC5B"/>
<path d="M42.2857 41.3477V42.2852H21.7143V41.3477C21.7143 41.037 21.961 40.7852 22.2653 40.7852H23.1837V23.9102C23.1837 23.2888 23.6771 22.7852 24.2857 22.7852H28.3265V19.4102C28.3265 18.7888 28.8199 18.2852 29.4286 18.2852H34.5714C35.1801 18.2852 35.6735 18.7888 35.6735 19.4102V22.7852H39.7143C40.3229 22.7852 40.8163 23.2888 40.8163 23.9102V40.7852H41.7347C42.039 40.7852 42.2857 41.037 42.2857 41.3477ZM35.8572 27.2852H34.0204C33.7161 27.2852 33.4694 27.537 33.4694 27.8477V29.7227C33.4694 30.0333 33.7161 30.2852 34.0204 30.2852H35.8572C36.1615 30.2852 36.4082 30.0333 36.4082 29.7227V27.8477C36.4082 27.537 36.1615 27.2852 35.8572 27.2852ZM28.1429 30.2852H29.9796C30.2839 30.2852 30.5306 30.0333 30.5306 29.7227V27.8477C30.5306 27.537 30.2839 27.2852 29.9796 27.2852H28.1429C27.8386 27.2852 27.5918 27.537 27.5918 27.8477V29.7227C27.5918 30.0333 27.8386 30.2852 28.1429 30.2852ZM32.9184 36.2852H31.0816C30.7773 36.2852 30.5306 36.537 30.5306 36.8477V40.7852H33.4694V36.8477C33.4694 36.537 33.2227 36.2852 32.9184 36.2852ZM35.8572 31.7852H34.0204C33.7161 31.7852 33.4694 32.037 33.4694 32.3477V34.2227C33.4694 34.5333 33.7161 34.7852 34.0204 34.7852H35.8572C36.1615 34.7852 36.4082 34.5333 36.4082 34.2227V32.3477C36.4082 32.037 36.1615 31.7852 35.8572 31.7852ZM30.5306 32.3477C30.5306 32.037 30.2839 31.7852 29.9796 31.7852H28.1429C27.8386 31.7852 27.5918 32.037 27.5918 32.3477V34.2227C27.5918 34.5333 27.8386 34.7852 28.1429 34.7852H29.9796C30.2839 34.7852 30.5306 34.5333 30.5306 34.2227V32.3477ZM30.0714 22.7852H31.2653V24.0039C31.2653 24.0785 31.2943 24.15 31.346 24.2028C31.3977 24.2555 31.4678 24.2852 31.5408 24.2852H32.4592C32.5323 24.2852 32.6023 24.2555 32.654 24.2028C32.7057 24.15 32.7347 24.0785 32.7347 24.0039V22.7852H33.9286C34.0016 22.7852 34.0717 22.7555 34.1234 22.7028C34.1751 22.65 34.2041 22.5785 34.2041 22.5039V21.5664C34.2041 21.4918 34.1751 21.4203 34.1234 21.3675C34.0717 21.3148 34.0016 21.2852 33.9286 21.2852H32.7347V20.0664C32.7347 19.9918 32.7057 19.9203 32.654 19.8675C32.6023 19.8148 32.5323 19.7852 32.4592 19.7852H31.5408C31.4678 19.7852 31.3977 19.8148 31.346 19.8675C31.2943 19.9203 31.2653 19.9918 31.2653 20.0664V21.2852H30.0714C29.9984 21.2852 29.9283 21.3148 29.8766 21.3675C29.825 21.4203 29.7959 21.4918 29.7959 21.5664V22.5039C29.7959 22.5785 29.825 22.65 29.8766 22.7028C29.9283 22.7555 29.9984 22.7852 30.0714 22.7852Z" fill="white"/>
</svg>
